PathFileType	4	(X/Y/Z)	D:\TRACE\v60_Jaco2_6-2-23\BothDRS_Motion1_5-v60.trc
DataRate	CameraRate	NumFrames	NumMarkers	Units	OrigDataRate	OrigDataStartFrame	OrigNumFrames
100.00	100.00	      39	9	mm	100.00	1	      6863
Frame#	Time	front left toe			Front right toe			aft left toe			aft right toe			Arm			FL body			FR body			AL Body			AR Body			
		X1	Y1	Z1	X2	Y2	Z2	X3	Y3	Z3	X4	Y4	Z4	X5	Y5	Z5	X6	Y6	Z6	X7	Y7	Z7	X8	Y8	Z8	X9	Y9	Z9	

1	0.000	-143.24557	19.63578	-263.28851	269.57544	18.70117	-331.82584	-44.78387	13.77816	352.28976	332.11606	17.94112	292.14877	63.68255	1212.40771	-328.67932	-37.81368	583.64276	-419.02191	120.94356	583.71558	-440.40015	91.42776	586.06696	518.41840	246.41385	579.85364	497.12933	
2	0.010	-143.24484	19.61636	-263.29041	269.51596	18.66640	-331.80945	-44.76208	13.73670	352.29172	332.07251	17.89313	292.15530	63.65791	1212.41284	-328.70486	-37.78760	583.64453	-419.01907	120.98373	583.66296	-440.36179	91.34217	586.05365	518.42969	246.36353	579.85248	497.16791	
3	0.020	-143.22935	19.63969	-263.27063	269.59229	18.69077	-331.82791	-44.81537	13.78877	352.25592	332.09509	17.85013	292.18347	63.65395	1212.38745	-328.71216	-37.77549	583.64679	-418.94202	120.96880	583.70673	-440.35501	91.35307	586.04315	518.42249	246.35153	579.85992	497.13336	
4	0.030	-143.28738	19.62451	-263.28656	269.63266	18.70453	-331.76169	-44.80003	13.80457	352.30905	331.98193	17.84664	292.16251	63.68872	1212.42175	-328.70264	-37.80319	583.63275	-419.03702	121.03061	583.62109	-440.32123	91.32205	586.05072	518.41962	246.31863	579.82391	497.13052	
5	0.040	-143.27190	19.66621	-263.26593	269.52145	18.65734	-331.83774	-44.79435	13.75019	352.32211	331.99066	17.81707	292.12091	63.66732	1212.38892	-328.68607	-37.76788	583.66290	-418.99841	121.00043	583.70514	-440.36005	91.35764	586.03406	518.42950	246.31584	579.85638	497.13391	
6	0.050	-143.28447	19.66077	-263.25595	269.51447	18.64719	-331.83173	-44.80204	13.77023	352.30621	331.98175	17.86939	292.14352	63.68256	1212.43762	-328.67651	-37.81907	583.67761	-419.03867	121.01903	583.68469	-440.33398	91.32803	586.06836	518.41541	246.30261	579.85663	497.12845	
7	0.060	-143.23601	19.63163	-263.27216	269.59381	18.67932	-331.79550	-44.76918	13.74948	352.29117	332.06305	17.87460	292.12772	63.72714	1212.41113	-328.70459	-37.76889	583.65112	-419.04196	120.92052	583.71704	-440.40341	91.40331	586.05963	518.42590	246.40605	579.87854	497.10504	
8	0.070	-143.27766	19.64879	-263.26807	269.52762	18.66643	-331.85071	-44.82808	13.76480	352.27106	332.11221	17.90230	292.17633	63.68779	1212.41150	-328.71924	-37.81837	583.70642	-419.05869	120.95647	583.68323	-440.37772	91.37497	586.06335	518.42572	246.32935	579.86877	497.11859	
9	0.080	-143.24347	19.61889	-263.27957	269.59637	18.71411	-331.79745	-44.76247	13.71834	352.34146	332.02423	17.83316	292.14215	63.68969	1212.38538	-328.66135	-37.80739	583.65466	-419.04227	120.94834	583.70013	-440.38611	91.33356	586.03998	518.43268	246.34027	579.84149	497.12793	
10	0.090	-143.25682	19.60736	-263.28683	269.53070	18.65850	-331.80276	-44.77632	13.72745	352.30750	332.05792	17.84861	292.15912	63.66148	1212.39917	-328.70569	-37.79244	583.68988	-419.02686	120.99043	583.69824	-440.34241	91.33340	586.05634	518.42444	246.36583	579.84283	497.19196	
11	0.100	-143.27669	19.63367	-263.26291	269.54034	18.66287	-331.82434	-44.76218	13.74059	352.28699	331.92093	17.82411	292.10760	63.63914	1212.39417	-328.73053	-37.76764	583.65851	-418.99213	120.97571	583.68921	-440.36243	91.40403	586.02991	518.42682	246.35188	579.82556	497.17542	
12	0.110	-143.27078	19.68385	-263.27200	269.58084	18.68178	-331.78073	-44.82144	13.77090	352.26239	331.98422	17.81647	292.14023	63.69115	1212.39368	-328.69995	-37.79151	583.66345	-419.04840	121.01281	583.68970	-440.34094	91.37710	586.06555	518.40778	246.37024	579.87152	497.15927	
13	0.120	-143.24821	19.65471	-263.27060	269.54279	18.66009	-331.78873	-44.82387	13.80124	352.27750	332.02771	17.88544	292.17447	63.68166	1212.40430	-328.71979	-37.80130	583.68140	-419.03217	120.99515	583.67120	-440.35858	91.35201	586.06927	518.41614	246.36932	579.84833	497.16245	
14	0.130	-143.28026	19.65022	-263.25409	269.54785	18.72090	-331.78851	-44.80022	13.73240	352.31979	331.99011	17.86116	292.17316	63.65804	1212.40137	-328.69171	-37.77119	583.66022	-419.04803	120.98849	583.67963	-440.34247	91.34978	586.06067	518.41760	246.32753	579.84558	497.11740	
15	0.140	-143.30339	19.62477	-263.25452	269.57913	18.69778	-331.79059	-44.77174	13.73244	352.30386	332.05801	17.86244	292.15549	63.59811	1212.36462	-328.72665	-37.79396	583.64856	-418.99869	120.96442	583.69940	-440.36520	91.31634	586.02435	518.42023	246.34174	579.79950	497.16235	
16	0.150	-143.27336	19.61353	-263.26031	269.57013	18.69720	-331.78476	-44.82296	13.78008	352.33160	332.03989	17.86983	292.15732	63.60551	1212.38306	-328.72528	-37.81540	583.67120	-419.02203	120.99606	583.67938	-440.34299	91.31876	586.02948	518.41254	246.32201	579.82434	497.14368	
17	0.160	-143.29395	19.65298	-263.25967	269.54248	18.66795	-331.80841	-44.81249	13.79575	352.30338	332.02185	17.89188	292.18814	63.65249	1212.40247	-328.73111	-37.78687	583.66370	-419.03900	120.99017	583.68134	-440.35809	91.37527	586.04523	518.42212	246.35959	579.85229	497.12323	
18	0.170	-143.29640	19.66229	-263.28726	269.59399	18.69504	-331.79611	-44.81101	13.81360	352.27045	332.04761	17.89342	292.13156	63.64414	1212.41895	-328.72250	-37.70514	583.65271	-418.99280	120.92844	583.72974	-440.40146	91.39380	586.05762	518.41248	246.37729	579.85602	497.11240	
19	0.180	-143.30276	19.68632	-263.29315	269.56747	18.70177	-331.84769	-44.78761	13.78397	352.30389	331.99988	17.89114	292.15576	63.63465	1212.38501	-328.68939	-37.84373	583.68555	-419.03839	121.00928	583.65283	-440.31732	91.34998	586.06665	518.40601	246.35057	579.87885	497.13824	
20	0.190	-143.27136	19.65878	-263.26443	269.60297	18.70803	-331.81204	-44.83675	13.78292	352.29007	331.99271	17.85854	292.11823	63.61549	1212.38843	-328.74414	-37.79163	583.66284	-419.00949	120.94613	583.68805	-440.38684	91.36197	586.05054	518.40985	246.31837	579.86469	497.11984	
21	0.200	-143.27951	19.64229	-263.26324	269.61417	18.72032	-331.75516	-44.76628	13.75434	352.30890	331.93732	17.82580	292.11646	63.59335	1212.44775	-328.68127	-37.74741	583.67523	-418.98578	120.98246	583.67542	-440.35544	91.31708	586.05365	518.41132	246.30511	579.83679	497.15530	
22	0.210	-143.27672	19.62595	-263.27634	269.63086	18.71469	-331.77893	-44.79715	13.75574	352.29196	332.04068	17.87990	292.15952	63.60813	1212.39355	-328.70410	-37.81675	583.67401	-418.99701	120.99282	583.66846	-440.35052	91.39141	586.04047	518.42206	246.34827	579.85931	497.13956	
23	0.220	-143.28217	19.68711	-263.28870	269.61813	18.75413	-331.81921	-44.79744	13.76774	352.28427	332.16922	17.93052	292.23233	63.66752	1212.39490	-328.71609	-37.76597	583.67078	-419.01398	120.97326	583.69360	-440.36414	91.37068	586.06506	518.42017	246.40305	579.89001	497.15955	
24	0.230	-143.28177	19.63935	-263.28015	269.67090	18.73358	-331.79358	-44.80648	13.79675	352.29730	332.06363	17.82595	292.14099	63.63432	1212.38452	-328.72287	-37.82129	583.66327	-419.01431	120.97044	583.67267	-440.34842	91.37729	586.04651	518.43994	246.38370	579.85950	497.14490	
25	0.240	-143.27551	19.65358	-263.25351	269.55835	18.71124	-331.79813	-44.77745	13.72271	352.33072	331.94345	17.84009	292.10077	63.58212	1212.40588	-328.68893	-37.80841	583.68530	-419.01654	120.99595	583.67517	-440.35336	91.33717	586.05133	518.42578	246.32599	579.83984	497.11383	
26	0.250	-143.30775	19.60893	-263.27356	269.57379	18.74097	-331.78693	-44.76982	13.67440	352.31750	331.97385	17.85081	292.17026	63.63885	1212.44238	-328.73914	-37.81015	583.66241	-418.98849	121.02950	583.65948	-440.31290	91.31670	586.03833	518.42328	246.30893	579.79230	497.13364	
27	0.260	-143.28416	19.63604	-263.23593	269.50168	18.69824	-331.80292	-44.77728	13.73050	352.30127	331.97083	17.83227	292.15948	63.60818	1212.42224	-328.75150	-37.81203	583.65430	-419.02151	120.98446	583.67908	-440.35129	91.29459	586.06079	518.42279	246.30161	579.81995	497.13916	
28	0.270	-143.26559	19.64240	-263.27213	269.64948	18.71968	-331.81030	-44.82128	13.78963	352.30408	332.05807	17.86848	292.11331	63.69549	1212.41614	-328.66431	-37.82967	583.67072	-419.02823	120.96068	583.68854	-440.38300	91.37862	586.05762	518.41840	246.37228	579.84991	497.15622	
29	0.280	-143.29051	19.65571	-263.28140	269.53766	18.69959	-331.82422	-44.78096	13.76001	352.27502	332.10992	17.89352	292.18042	63.59679	1212.38916	-328.70206	-37.79292	583.66357	-419.00711	120.93607	583.69122	-440.41165	91.39030	586.06702	518.41791	246.41098	579.87122	497.13376	
30	0.290	-143.23253	19.61780	-263.25809	269.54770	18.68268	-331.84970	-44.76288	13.72439	352.32889	332.08670	17.84707	292.10840	63.63813	1212.36499	-328.74951	-37.81334	583.67169	-419.01816	121.00836	583.67938	-440.32629	91.34680	586.03937	518.42419	246.36449	579.83533	497.14209	
31	0.300	-143.26653	19.60868	-263.26440	269.48816	18.69893	-331.83807	-44.79155	13.74570	352.36298	331.99298	17.85330	292.14874	63.57364	1212.39478	-328.71982	-37.80962	583.63599	-419.03476	121.01648	583.67126	-440.32437	91.31084	586.06268	518.42401	246.30568	579.79694	497.15381	
32	0.310	-143.29457	19.61571	-263.24319	269.59454	18.68009	-331.86346	-44.80708	13.70685	352.30688	332.07568	17.85491	292.16034	63.59370	1212.34900	-328.76788	-37.81783	583.65326	-419.03076	120.95808	583.70660	-440.36557	91.38031	586.04218	518.43909	246.34723	579.79657	497.13666	
33	0.320	-143.29842	19.66021	-263.28265	269.48859	18.66513	-331.79715	-44.78753	13.75751	352.29636	332.01178	17.87284	292.19376	63.58738	1212.41394	-328.75775	-37.79365	583.62860	-418.97812	120.98255	583.69568	-440.35992	91.37141	586.05756	518.41748	246.37669	579.87042	497.18146	
34	0.330	-143.26845	19.66886	-263.30920	269.56494	18.69335	-331.83673	-44.79995	13.77596	352.23169	332.06671	17.86516	292.10968	63.66838	1212.42932	-328.70905	-37.83868	583.65277	-419.02884	120.99467	583.69281	-440.32938	91.39005	586.04352	518.42090	246.41359	579.88525	497.11899	
35	0.340	-143.26570	19.68547	-263.24942	269.51883	18.70537	-331.80606	-44.82149	13.80146	352.29349	331.97263	17.89438	292.12680	63.58665	1212.40198	-328.73935	-37.82579	583.67114	-419.00519	120.96888	583.68604	-440.35529	91.34795	586.05841	518.42719	246.36932	579.88849	497.12943	
36	0.350	-143.23952	19.62305	-263.28098	269.55521	18.70068	-331.84320	-44.78994	13.75438	352.31870	331.98737	17.83101	292.12485	63.61098	1212.39111	-328.73065	-37.83537	583.66394	-419.00992	120.97552	583.66974	-440.35876	91.32182	586.06659	518.40967	246.34946	579.84332	497.11340	
37	0.360	-143.27492	19.61416	-263.25781	269.56787	18.72716	-331.80173	-44.76823	13.71708	352.31314	331.89828	17.85517	292.11298	63.55929	1212.39355	-328.73782	-37.82438	583.65790	-418.96588	120.98464	583.67029	-440.34915	91.29378	586.05719	518.43018	246.26552	579.83539	497.15863	
38	0.370	-143.25932	19.67336	-263.24417	269.65094	18.76450	-331.80920	-44.77412	13.70988	352.30200	332.07147	17.91022	292.12500	63.58449	1212.37659	-328.71097	-37.75288	583.62482	-418.98135	121.00387	583.68683	-440.32977	91.33316	586.04309	518.41431	246.35023	579.85876	497.10696	
39	0.380	-143.24385	19.66563	-263.27692	269.56943	18.71190	-331.81378	-44.80400	13.76654	352.25906	332.00391	17.85539	292.14771	63.62947	1212.42310	-328.72205	-37.82972	583.66644	-419.00403	120.96875	583.69257	-440.36816	91.34325	586.06195	518.41956	246.38567	579.85205	497.15829	
